<?xml version="1.0" encoding="iso-8859-1"?>
<!-- Uploaded to: SVG Repo, www.svgrepo.com, Generator: SVG Repo Mixer Tools -->
<svg version="1.1" id="Layer_1" xmlns="http://www.w3.org/2000/svg" xmlns:xlink="http://www.w3.org/1999/xlink" 
	 viewBox="0 0 512.002 512.002" xml:space="preserve">
<path style="fill:#547475;" d="M471.716,260.604c-19.895-19.895-47.381-32.201-77.739-32.201h-27.402H148.313h-30.289
	c-60.718,0-109.94,49.222-109.94,109.94s49.222,109.94,109.94,109.94c20.385,0,39.464-5.563,55.83-15.232l0.004,0.012
	c0,0,76.117-31.299,164.283,0l0.004-0.012c16.367,9.669,35.447,15.232,55.832,15.232c60.718,0,109.939-49.222,109.939-109.94
	c0-21.768-6.326-42.059-17.242-59.134"/>
<circle style="fill:#53CAF9;" cx="390.155" cy="293.997" r="18.863"/>
<circle style="fill:#EFBA00;" cx="390.155" cy="381.425" r="18.863"/>
<circle style="fill:#73C470;" cx="346.435" cy="337.706" r="18.863"/>
<circle style="fill:#F74848;" cx="433.863" cy="337.706" r="18.863"/>
<path style="fill:#B4CCCB;" d="M144.438,323.696h-19.941v-19.941c0-7.143-5.79-12.935-12.935-12.935h-2.156
	c-7.143,0-12.935,5.792-12.935,12.935v19.941H76.531c-7.143,0-12.935,5.792-12.935,12.935v2.156c0,7.144,5.792,12.935,12.935,12.935
	h19.941v19.941c0,7.143,5.792,12.935,12.935,12.935h2.156c7.144,0,12.935-5.792,12.935-12.935v-19.941h19.941
	c7.143,0,12.935-5.79,12.935-12.935v-2.156C157.373,329.488,151.581,323.696,144.438,323.696z"/>
<polyline style="fill:#8AACAD;" points="253.844,256.328 215.04,256.328 215.04,228.403 292.648,228.403 292.648,256.328 
	278.276,256.328 "/>
<g style="opacity:0.2;">
	<rect x="215.04" y="228.407" style="fill:#231F20;" width="25.511" height="27.925"/>
</g>
<g>
	<path style="fill:#231F20;" d="M493.486,274.853c-2.406-3.762-7.403-4.861-11.166-2.457c-3.761,2.405-4.861,7.404-2.457,11.166
		c10.446,16.341,15.968,35.284,15.968,54.78c0,4.388-0.279,8.712-0.82,12.955c-0.217,1.698-0.474,3.381-0.774,5.052
		c-0.15,0.835-0.309,1.666-0.48,2.495c-9.513,46.37-50.64,81.353-99.783,81.354c-0.006,0-0.013,0-0.019,0
		c-1.205,0-2.406-0.026-3.603-0.068c-0.582-0.021-1.163-0.057-1.744-0.087c-0.586-0.03-1.174-0.058-1.759-0.099
		c-0.802-0.056-1.602-0.126-2.402-0.201c-0.319-0.029-0.639-0.057-0.958-0.089c-0.992-0.102-1.982-0.217-2.97-0.348
		c-0.065-0.009-0.129-0.017-0.193-0.026c-13.417-1.812-26.377-6.281-38.07-13.188c-0.313-0.184-0.636-0.343-0.966-0.482
		c-18.472-11.135-33.31-28.117-41.805-49.158c-1.672-4.139-6.381-6.14-10.523-4.47c-4.14,1.672-6.141,6.383-4.47,10.523
		c4.972,12.317,11.828,23.427,20.145,33.081c-38.733-7.478-73.02-4.624-97.209-0.079c8.287-9.634,15.119-20.718,20.078-33.002
		c1.672-4.14-0.33-8.852-4.47-10.523c-4.139-1.67-8.851,0.331-10.522,4.47c-8.498,21.048-23.343,38.035-41.822,49.169
		c-0.323,0.138-0.642,0.29-0.95,0.471c-11.69,6.906-24.647,11.375-38.059,13.187c-0.071,0.01-0.143,0.019-0.215,0.028
		c-0.981,0.13-1.965,0.245-2.951,0.346c-0.326,0.033-0.652,0.061-0.979,0.092c-0.793,0.074-1.588,0.143-2.383,0.199
		c-0.592,0.041-1.186,0.069-1.78,0.1c-0.576,0.03-1.15,0.066-1.726,0.086c-1.204,0.042-2.412,0.068-3.625,0.068
		C61.86,440.198,16.168,394.505,16.168,338.343S61.86,236.487,118.024,236.487h88.932v19.841c0,4.466,3.62,8.084,8.084,8.084h38.804
		c4.466,0,8.084-3.618,8.084-8.084c0-4.465-3.618-8.084-8.084-8.084h-30.72v-11.757h61.44v11.757h-6.288
		c-4.465,0-8.084,3.62-8.084,8.084c0,4.466,3.62,8.084,8.084,8.084h14.373c4.466,0,8.084-3.618,8.084-8.084v-19.841h93.244
		c27.206,0,52.785,10.595,72.022,29.833c3.158,3.156,8.276,3.156,11.433,0c3.157-3.158,3.157-8.276,0-11.433
		c-22.293-22.292-51.931-34.568-83.456-34.568H292.648h-30.72v-29.521c0-18.899,15.375-34.275,34.274-34.275h23.933h17.8h15.85
		c27.814,0,50.442-22.629,50.442-50.443s-22.628-50.443-50.442-50.443h-15.85h-17.8h-68.446c-4.465,0-8.084,3.62-8.084,8.084
		s3.62,8.084,8.084,8.084h68.446h17.8h15.85c18.899,0,34.274,15.376,34.274,34.275s-15.375,34.275-34.274,34.275h-15.85h-17.8
		h-23.933c-27.814,0-50.442,22.629-50.442,50.443v29.521h-30.72h-97.016C52.945,220.318,0,273.264,0,338.343
		s52.945,118.024,118.024,118.024c1.395,0,2.789-0.029,4.18-0.079c0.649-0.023,1.295-0.064,1.941-0.096
		c0.7-0.037,1.399-0.069,2.097-0.117c0.897-0.061,1.788-0.14,2.68-0.222c0.391-0.037,0.783-0.07,1.174-0.11
		c1.118-0.113,2.231-0.244,3.341-0.388c0.082-0.011,0.163-0.022,0.245-0.032c15.839-2.086,30.816-7.298,44.194-15.147
		c8.751-3.295,77.761-27.363,156.447,0.115c13.341,7.793,28.268,12.966,44.047,15.038c0.072,0.01,0.143,0.019,0.216,0.028
		c1.112,0.144,2.228,0.275,3.349,0.388c0.385,0.04,0.77,0.072,1.156,0.109c0.894,0.081,1.788,0.161,2.686,0.222
		c0.692,0.049,1.386,0.081,2.079,0.116c0.65,0.033,1.299,0.074,1.951,0.097c1.383,0.049,2.768,0.078,4.155,0.078
		c0.005,0,0.011,0,0.016,0h0.001h0.001c62.027,0,113.033-48.098,117.678-108.957c0.229-2.993,0.345-6.017,0.345-9.067
		C512,315.754,505.598,293.801,493.486,274.853z"/>
	<path style="fill:#231F20;" d="M109.406,392.681h2.156c11.59,0,21.019-9.429,21.019-21.019v-11.857h11.857
		c11.59,0,21.019-9.429,21.019-21.019v-2.156c0-11.59-9.429-21.019-21.019-21.019h-11.857v-11.857
		c0-11.59-9.429-21.019-21.019-21.019h-2.156c-11.59,0-21.019,9.429-21.019,21.019v11.857H76.531
		c-11.59,0-21.019,9.429-21.019,21.019v2.156c0,11.59,9.429,21.019,21.019,21.019h11.857v11.857
		C88.387,383.252,97.817,392.681,109.406,392.681z M76.531,343.637c-2.674,0-4.851-2.176-4.851-4.851v-2.156
		c0-2.674,2.176-4.851,4.851-4.851h19.941c4.465,0,8.084-3.618,8.084-8.084v-19.941c0-2.674,2.176-4.851,4.851-4.851h2.156
		c2.674,0,4.851,2.176,4.851,4.851v19.941c0,4.466,3.62,8.084,8.084,8.084h19.941c2.674,0,4.851,2.176,4.851,4.851v2.156
		c0,2.674-2.176,4.851-4.851,4.851h-19.941c-4.465,0-8.084,3.618-8.084,8.084v19.941c0,2.675-2.176,4.851-4.851,4.851h-2.156
		c-2.674,0-4.851-2.175-4.851-4.851v-19.941c0-4.466-3.62-8.084-8.084-8.084H76.531z"/>
	<path style="fill:#231F20;" d="M390.154,320.941c14.859,0,26.947-12.089,26.947-26.947c0-14.859-12.089-26.947-26.947-26.947
		c-14.859,0-26.947,12.089-26.947,26.947C363.206,308.852,375.295,320.941,390.154,320.941z M390.154,283.215
		c5.944,0,10.779,4.835,10.779,10.779c0,5.944-4.835,10.779-10.779,10.779c-5.944,0-10.779-4.835-10.779-10.779
		C379.375,288.051,384.211,283.215,390.154,283.215z"/>
	<path style="fill:#231F20;" d="M390.154,408.371c14.859,0,26.947-12.089,26.947-26.947c0-14.859-12.089-26.947-26.947-26.947
		c-14.859,0-26.947,12.089-26.947,26.947C363.206,396.283,375.295,408.371,390.154,408.371z M390.154,370.645
		c5.944,0,10.779,4.835,10.779,10.779s-4.835,10.779-10.779,10.779c-5.944,0-10.779-4.835-10.779-10.779
		S384.211,370.645,390.154,370.645z"/>
	<path style="fill:#231F20;" d="M319.491,337.708c0,14.859,12.089,26.947,26.947,26.947c14.859,0,26.947-12.089,26.947-26.947
		c0-14.859-12.089-26.947-26.947-26.947C331.58,310.76,319.491,322.849,319.491,337.708z M357.218,337.708
		c0,5.944-4.835,10.779-10.779,10.779s-10.779-4.835-10.779-10.779c0-5.944,4.835-10.779,10.779-10.779
		C352.381,326.929,357.218,331.764,357.218,337.708z"/>
	<path style="fill:#231F20;" d="M460.815,337.708c0-14.859-12.089-26.947-26.947-26.947c-14.859,0-26.947,12.089-26.947,26.947
		c0,14.859,12.089,26.947,26.947,26.947C448.727,364.655,460.815,352.566,460.815,337.708z M423.089,337.708
		c0-5.944,4.835-10.779,10.779-10.779s10.779,4.835,10.779,10.779c0,5.944-4.835,10.779-10.779,10.779
		S423.089,343.651,423.089,337.708z"/>
</g>
<g style="opacity:0.2;">
	<path style="fill:#231F20;" d="M33.706,338.343c0-60.718,49.221-109.94,109.94-109.94h-25.622
		c-60.718,0-109.94,49.222-109.94,109.94s49.222,109.94,109.94,109.94c4.322,0,8.582-0.265,12.774-0.751
		C76.134,441.167,33.706,394.714,33.706,338.343z"/>
</g>
</svg>